<svg width="16" height="16" viewBox="0 0 16 16" fill="none" xmlns="http://www.w3.org/2000/svg">
<path d="M8.70704 0.293031C8.51951 0.105559 8.26521 0.000244141 8.00004 0.000244141C7.73488 0.000244141 7.48057 0.105559 7.29304 0.293031L0.293041 7.29303C0.110883 7.48163 0.0100885 7.73423 0.0123669 7.99643C0.0146453 8.25863 0.119814 8.50944 0.305222 8.69485C0.490631 8.88026 0.741443 8.98543 1.00364 8.9877C1.26584 8.98998 1.51844 8.88919 1.70704 8.70703L2.00004 8.41403V15C2.00004 15.2652 2.1054 15.5196 2.29293 15.7071C2.48047 15.8947 2.73482 16 3.00004 16H5.00004C5.26526 16 5.51961 15.8947 5.70715 15.7071C5.89468 15.5196 6.00004 15.2652 6.00004 15V13C6.00004 12.7348 6.1054 12.4805 6.29293 12.2929C6.48047 12.1054 6.73482 12 7.00004 12H9.00004C9.26526 12 9.51961 12.1054 9.70715 12.2929C9.89468 12.4805 10 12.7348 10 13V15C10 15.2652 10.1054 15.5196 10.2929 15.7071C10.4805 15.8947 10.7348 16 11 16H13C13.2653 16 13.5196 15.8947 13.7071 15.7071C13.8947 15.5196 14 15.2652 14 15V8.41403L14.293 8.70703C14.4816 8.88919 14.7342 8.98998 14.9964 8.9877C15.2586 8.98543 15.5095 8.88026 15.6949 8.69485C15.8803 8.50944 15.9854 8.25863 15.9877 7.99643C15.99 7.73423 15.8892 7.48163 15.707 7.29303L8.70704 0.293031Z" fill="#3F3F46"/>
</svg>
