<svg width="17" height="15" viewBox="0 0 17 15" fill="none" xmlns="http://www.w3.org/2000/svg">
<path fill-rule="evenodd" clip-rule="evenodd" d="M1.172 2.17202C1.92211 1.42214 2.93934 1.00087 4 1.00087C5.06066 1.00087 6.07789 1.42214 6.828 2.17202L8 3.34302L9.172 2.17202C9.54099 1.78998 9.98237 1.48525 10.4704 1.27561C10.9584 1.06598 11.4833 0.955633 12.0144 0.951018C12.5455 0.946402 13.0722 1.04761 13.5638 1.24873C14.0554 1.44986 14.502 1.74687 14.8776 2.12244C15.2532 2.49801 15.5502 2.94462 15.7513 3.4362C15.9524 3.92779 16.0536 4.45451 16.049 4.98562C16.0444 5.51674 15.934 6.04162 15.7244 6.52964C15.5148 7.01765 15.21 7.45903 14.828 7.82802L8 14.657L1.172 7.82802C0.422116 7.07791 0.000854492 6.06068 0.000854492 5.00002C0.000854492 3.93936 0.422116 2.92213 1.172 2.17202Z" fill="#3F3F46"/>
</svg>
