<svg width="16" height="16" viewBox="0 0 16 16" fill="none" xmlns="http://www.w3.org/2000/svg">
<path fill-rule="evenodd" clip-rule="evenodd" d="M6 1.99997C4.93913 1.99997 3.92172 2.4214 3.17157 3.17155C2.42143 3.92169 2 4.93911 2 5.99997C2 7.06084 2.42143 8.07825 3.17157 8.8284C3.92172 9.57855 4.93913 9.99997 6 9.99997C7.06087 9.99997 8.07828 9.57855 8.82843 8.8284C9.57857 8.07825 10 7.06084 10 5.99997C10 4.93911 9.57857 3.92169 8.82843 3.17155C8.07828 2.4214 7.06087 1.99997 6 1.99997ZM1.13461e-07 5.99997C-0.00012039 5.05568 0.222642 4.12468 0.650171 3.28271C1.0777 2.44074 1.69792 1.71157 2.4604 1.1545C3.22287 0.597426 4.10606 0.228185 5.03815 0.0768059C5.97023 -0.0745733 6.92488 -0.00381595 7.82446 0.283323C8.72404 0.570462 9.54315 1.06587 10.2152 1.72927C10.8872 2.39266 11.3931 3.20531 11.6919 4.10111C11.9906 4.9969 12.0737 5.95056 11.9343 6.88452C11.795 7.81848 11.4372 8.70637 10.89 9.47597L15.707 14.293C15.8892 14.4816 15.99 14.7342 15.9877 14.9964C15.9854 15.2586 15.8802 15.5094 15.6948 15.6948C15.5094 15.8802 15.2586 15.9854 14.9964 15.9876C14.7342 15.9899 14.4816 15.8891 14.293 15.707L9.477 10.891C8.57936 11.5293 7.52335 11.9081 6.42468 11.9861C5.326 12.0641 4.22707 11.8381 3.2483 11.3329C2.26953 10.8278 1.44869 10.063 0.875723 9.12232C0.30276 8.18165 -0.000214051 7.10141 1.13461e-07 5.99997Z" fill="#3F3F46"/>
</svg>
